<?xml version="1.0" encoding="UTF-8"?>
<!DOCTYPE svg PUBLIC "-//W3C//DTD SVG 1.0//EN" "http://www.w3.org/TR/2001/REC-SVG-20010904/DTD/svg10.dtd">
<!-- Creator: CorelDRAW -->
<svg xmlns="http://www.w3.org/2000/svg" xml:space="preserve" width="420px" height="420px" version="1.0" style="shape-rendering:geometricPrecision; text-rendering:geometricPrecision; image-rendering:optimizeQuality; fill-rule:evenodd; clip-rule:evenodd"
viewBox="0 0 420 420"
 xmlns:xlink="http://www.w3.org/1999/xlink"
 xmlns:xodm="http://www.corel.com/coreldraw/odm/2003">
 <defs>
  <style type="text/css">
   <![CDATA[
    .fil0 {fill:none}
    .fil1 {fill:white}
   ]]>
  </style>
 </defs>
 <g id="Layer_x0020_1">
  <metadata id="CorelCorpID_0Corel-Layer"/>
  <rect class="fil0" width="420" height="420"/>
  <path class="fil1" d="M185.12 187.015l44.094 0 0 -21.155 57.323 0.052 0 44.043 -57.297 -0.001 0 44.05 44.094 0 0 -11.301 35.25 0 0 -19.638 14.523 0 0 -71.587 -14.523 0 0 -18.314 -35.248 0 0 -11.353 -44.136 0 0 21.155 -44.08 0 0 44.049zm-88.227 111.174l44.093 0 0 -78.668 -44.093 0 0 78.668zm0.013 -132.275l24.561 0 0 44.038 44.094 0 0 -44.055 -24.562 0 0 -44.032 -44.093 0 0 44.049zm59.002 88.235l29.246 0 0 44.04 44.093 0 0 -44.049 -29.245 0 0 -44.182 -44.094 0 0 44.191z"/>
 </g>
</svg>
